<svg xmlns="http://www.w3.org/2000/svg" width="315" height="454" viewBox="0 0 315 454">
    <g fill="none" fill-rule="evenodd">
        <g fill-rule="nonzero" transform="translate(42 275)">
            <path fill="#04ADE6" d="M4.905 39.987h6.324a1.908 1.908 0 0 0 1.908-1.908v-10.47h1.077a1.908 1.908 0 0 0 1.908-1.909V13.908A1.908 1.908 0 0 0 14.214 12H1.908A1.908 1.908 0 0 0 0 13.908v11.743c0 1.054.854 1.908 1.908 1.908h1.077v10.459a1.896 1.896 0 0 0 1.92 1.97z"/>
            <circle cx="7.991" cy="4.991" r="4.991" fill="#04ADE6"/>
            <path fill="#000" d="M38.214 12.612c.716 0 1.296.58 1.296 1.296v11.743c0 .716-.58 1.297-1.296 1.297h-1.688v11.07c0 .716-.58 1.296-1.297 1.296h-6.324a1.223 1.223 0 0 1-1.297-1.296V26.997H25.92c-.716 0-1.296-.58-1.296-1.297V13.908c0-.716.58-1.296 1.296-1.296h12.306-.012zm.012-.612H25.908A1.908 1.908 0 0 0 24 13.908v11.743c0 1.054.854 1.908 1.908 1.908h1.077v10.459a1.896 1.896 0 0 0 1.908 1.908h6.287a1.908 1.908 0 0 0 1.908-1.908v-10.41h1.077a1.908 1.908 0 0 0 1.908-1.957V13.908A1.908 1.908 0 0 0 38.165 12h.061zM31.99.612a4.38 4.38 0 1 1-4.378 4.379A4.391 4.391 0 0 1 31.99.61zm0-.612a4.99 4.99 0 1 0 0 9.981 4.99 4.99 0 0 0 0-9.981zM63.214 13.685c.716 0 1.296.58 1.296 1.297v11.804c0 .716-.58 1.296-1.296 1.296h-1.688v11.07c0 .716-.58 1.297-1.297 1.297h-6.324a1.223 1.223 0 0 1-1.297-1.297v-11.07H50.92c-.716 0-1.296-.58-1.296-1.296V14.908c0-.716.58-1.296 1.296-1.296h12.306l-.012.073zm.012-.685H50.908A1.908 1.908 0 0 0 49 14.908v11.804c0 1.054.854 1.908 1.908 1.908h1.077V39.08a1.896 1.896 0 0 0 1.908 1.908h6.324a1.908 1.908 0 0 0 1.908-1.908V28.62h1.076a1.908 1.908 0 0 0 1.909-1.908V14.908A1.908 1.908 0 0 0 63.2 13h.025zM56.99 1.612a4.38 4.38 0 1 1-4.378 4.379 4.391 4.391 0 0 1 4.379-4.38zm0-.612a4.99 4.99 0 1 0 0 9.981 4.99 4.99 0 0 0 0-9.981zM87.275 13.686c.716 0 1.296.58 1.296 1.297v11.804c0 .716-.58 1.296-1.296 1.296h-1.688v11.07c0 .716-.58 1.297-1.297 1.297h-6.397a1.223 1.223 0 0 1-1.297-1.297v-11.07h-1.688c-.716 0-1.296-.58-1.296-1.296V14.909c0-.716.58-1.296 1.296-1.296h12.306l.06.073zm-.061-.685H74.969A1.908 1.908 0 0 0 73 14.909v11.804c0 1.054.854 1.908 1.908 1.908h1.077V39.08a1.896 1.896 0 0 0 1.908 1.908h6.324a1.908 1.908 0 0 0 1.908-1.908V28.62h1.076a1.908 1.908 0 0 0 1.909-1.908V14.91a1.908 1.908 0 0 0-1.909-1.908h.013zM80.99 1.612a4.38 4.38 0 1 1-4.378 4.379 4.391 4.391 0 0 1 4.379-4.38zm0-.612a4.99 4.99 0 1 0 0 9.981 4.99 4.99 0 0 0 0-9.981zM109.214 12.612c.716 0 1.296.58 1.296 1.296v11.743c0 .716-.58 1.297-1.296 1.297h-1.7v11.07c0 .716-.581 1.296-1.297 1.296h-6.324a1.223 1.223 0 0 1-1.297-1.296V26.997h-1.688c-.716 0-1.296-.58-1.296-1.297V13.908c0-.716.58-1.296 1.296-1.296h12.306zm0-.612H96.908A1.908 1.908 0 0 0 95 13.908v11.743c0 1.054.854 1.908 1.908 1.908h1.077v10.459a1.896 1.896 0 0 0 1.908 1.908h6.324a1.908 1.908 0 0 0 1.908-1.908v-10.41h1.076a1.908 1.908 0 0 0 1.982-1.957V13.908A1.908 1.908 0 0 0 109.275 12h-.061zM102.99.612a4.38 4.38 0 1 1-4.378 4.379A4.391 4.391 0 0 1 102.99.61zm0-.612a4.99 4.99 0 1 0 0 9.981 4.99 4.99 0 0 0 0-9.981zM133.214 12.612c.716 0 1.296.58 1.296 1.296v11.743c0 .716-.58 1.297-1.296 1.297h-1.7v11.07c0 .716-.581 1.296-1.297 1.296h-6.324a1.223 1.223 0 0 1-1.297-1.296V26.997h-1.688c-.716 0-1.296-.58-1.296-1.297V13.908c0-.716.58-1.296 1.296-1.296h12.306zm0-.612h-12.306A1.908 1.908 0 0 0 119 13.908v11.743c0 1.054.854 1.908 1.908 1.908h1.064v10.459a1.896 1.896 0 0 0 1.909 1.908h6.324a1.908 1.908 0 0 0 1.908-1.908v-10.41h1.076a1.908 1.908 0 0 0 1.908-1.908V13.908A1.908 1.908 0 0 0 133.19 12h.025zM126.99.612a4.38 4.38 0 1 1-4.378 4.379A4.391 4.391 0 0 1 126.99.61zm0-.612a4.99 4.99 0 1 0 0 9.981 4.99 4.99 0 0 0 0-9.981zM158.165 13.685c.716 0 1.296.58 1.296 1.297v11.804c0 .716-.58 1.296-1.296 1.296h-1.688v11.07c0 .716-.58 1.297-1.297 1.297h-6.287a1.223 1.223 0 0 1-1.297-1.297v-11.07h-1.688c-.716 0-1.296-.58-1.296-1.296V14.908c0-.716.58-1.296 1.296-1.296h12.306l-.05.073zm.049-.685h-12.355A1.908 1.908 0 0 0 144 14.908v11.804c0 1.054.854 1.908 1.908 1.908h1.077V39.08a1.896 1.896 0 0 0 1.908 1.908h6.324a1.908 1.908 0 0 0 1.908-1.908V28.62h1.076a1.908 1.908 0 0 0 1.909-1.908V14.908A1.908 1.908 0 0 0 158.2 13h.013zM151.99 1.612a4.38 4.38 0 1 1-4.378 4.379 4.391 4.391 0 0 1 4.379-4.38zm0-.612a4.99 4.99 0 1 0 0 9.981 4.99 4.99 0 0 0 0-9.981zM182.226 13.685c.716 0 1.297.58 1.297 1.297v11.804c0 .716-.58 1.296-1.297 1.296h-1.688v11.07c0 .716-.58 1.297-1.297 1.297h-6.324a1.223 1.223 0 0 1-1.296-1.297v-11.07h-1.688c-.716 0-1.297-.58-1.297-1.296V14.908c0-.716.58-1.296 1.297-1.296h12.305l-.012.073zm.012-.685h-12.33A1.908 1.908 0 0 0 168 14.908v11.804c0 1.054.854 1.908 1.908 1.908h1.077V39.08a1.896 1.896 0 0 0 1.908 1.908h6.324a1.908 1.908 0 0 0 1.908-1.908V28.62h1.076a1.908 1.908 0 0 0 1.909-1.908V14.908A1.908 1.908 0 0 0 182.2 13h.037zM175.99 1.612a4.38 4.38 0 1 1-4.378 4.379 4.391 4.391 0 0 1 4.379-4.38zm0-.612a4.99 4.99 0 1 0 0 9.981 4.99 4.99 0 0 0 0-9.981zM205.214 13.685a1.297 1.297 0 0 1 1.32 1.223v11.804c0 .716-.58 1.297-1.296 1.297h-1.688v11.07c0 .716-.58 1.296-1.296 1.296h-6.361a1.223 1.223 0 0 1-1.297-1.296v-11.07h-1.688c-.716 0-1.296-.58-1.296-1.297V14.908c0-.716.58-1.296 1.296-1.296h12.306v.073zm0-.685h-12.306A1.908 1.908 0 0 0 191 14.908v11.804c0 1.054.854 1.908 1.908 1.908h1.077V39.08a1.896 1.896 0 0 0 1.908 1.908h6.324a1.908 1.908 0 0 0 1.908-1.908V28.62h1.076a1.908 1.908 0 0 0 1.909-1.908V14.908A1.908 1.908 0 0 0 205.2 13h.013zM198.99 1.612a4.38 4.38 0 1 1-4.378 4.379 4.391 4.391 0 0 1 4.379-4.38zm0-.612a4.99 4.99 0 1 0 0 9.981 4.99 4.99 0 0 0 0-9.981zM229.214 13.685c.716 0 1.296.58 1.296 1.297v11.804c0 .716-.58 1.296-1.296 1.296h-1.688v11.07c0 .716-.58 1.297-1.297 1.297h-6.324a1.223 1.223 0 0 1-1.297-1.297v-11.07h-1.688c-.716 0-1.296-.58-1.296-1.296V14.908c0-.716.58-1.296 1.296-1.296h12.306l-.012.073zm.012-.685h-12.318A1.908 1.908 0 0 0 215 14.908v11.804c0 1.054.854 1.908 1.908 1.908h1.077V39.08a1.896 1.896 0 0 0 1.908 1.908h6.324a1.908 1.908 0 0 0 1.908-1.908V28.62h1.076a1.908 1.908 0 0 0 1.909-1.908V14.908A1.908 1.908 0 0 0 229.2 13h.025zM222.99 1.612a4.38 4.38 0 1 1-4.378 4.379 4.391 4.391 0 0 1 4.379-4.38zm0-.612a4.99 4.99 0 1 0 0 9.981 4.99 4.99 0 0 0 0-9.981zM14.214 57.624c.716 0 1.296.58 1.296 1.296v11.804c0 .717-.58 1.297-1.296 1.297h-1.688v11.07c0 .716-.58 1.297-1.297 1.297H4.905a1.223 1.223 0 0 1-1.297-1.297v-11.07H1.92c-.716 0-1.296-.58-1.296-1.297V58.908c0-.716.58-1.296 1.296-1.296h12.306l-.012.012zm.012-.624H1.908A1.908 1.908 0 0 0 0 58.908v11.804c0 1.054.854 1.908 1.908 1.908h1.077V83.08a1.896 1.896 0 0 0 1.908 1.908h6.324a1.908 1.908 0 0 0 1.908-1.908V72.62h1.076a1.908 1.908 0 0 0 1.909-1.908V58.908A1.908 1.908 0 0 0 14.2 57h.025zM7.99 45.612a4.38 4.38 0 1 1-4.378 4.379 4.391 4.391 0 0 1 4.379-4.38zm0-.612a4.99 4.99 0 1 0 0 9.981 4.99 4.99 0 0 0 0-9.981zM38.214 57.624c.716 0 1.296.58 1.296 1.296v11.804c0 .717-.58 1.297-1.296 1.297h-1.688v11.07c0 .716-.58 1.297-1.297 1.297h-6.324a1.223 1.223 0 0 1-1.297-1.297v-11.07H25.92c-.716 0-1.296-.58-1.296-1.297V58.908c0-.716.58-1.296 1.296-1.296h12.306l-.012.012zm.012-.624H25.908A1.908 1.908 0 0 0 24 58.908v11.804c0 1.054.854 1.908 1.908 1.908h1.077V83.08a1.896 1.896 0 0 0 1.908 1.908h6.287a1.908 1.908 0 0 0 1.908-1.908V72.62h1.077a1.908 1.908 0 0 0 1.908-1.908V58.908A1.908 1.908 0 0 0 38.165 57h.061zM31.99 45.612a4.38 4.38 0 1 1-4.378 4.379 4.391 4.391 0 0 1 4.379-4.38zm0-.612a4.99 4.99 0 1 0 0 9.981 4.99 4.99 0 0 0 0-9.981zM63.214 58.612c.716 0 1.296.58 1.296 1.296v11.804c0 .716-.58 1.297-1.296 1.297h-1.688v11.07c0 .716-.58 1.296-1.297 1.296h-6.324a1.223 1.223 0 0 1-1.297-1.296v-11.07H50.92c-.716 0-1.296-.58-1.296-1.297V59.908c0-.716.58-1.296 1.296-1.296h12.306-.012zm.012-.612H50.908A1.908 1.908 0 0 0 49 59.908v11.804c0 1.054.854 1.908 1.908 1.908h1.077V84.08a1.896 1.896 0 0 0 1.908 1.908h6.324a1.908 1.908 0 0 0 1.908-1.908V73.62h1.076a1.908 1.908 0 0 0 1.909-1.908V59.908A1.908 1.908 0 0 0 63.2 58h.025zM56.99 46.612a4.38 4.38 0 1 1-4.378 4.379 4.391 4.391 0 0 1 4.379-4.38zm0-.612a4.99 4.99 0 1 0 0 9.981 4.99 4.99 0 0 0 0-9.981zM87.214 58.612c.716 0 1.296.58 1.296 1.296v11.804c0 .716-.58 1.297-1.296 1.297h-1.688v11.07c0 .716-.58 1.296-1.297 1.296h-6.397a1.223 1.223 0 0 1-1.297-1.296v-11.07h-1.688c-.716 0-1.297-.58-1.297-1.297V59.908c0-.716.581-1.296 1.297-1.296h12.366zM87.153 58H74.908A1.908 1.908 0 0 0 73 59.908v11.804c0 1.054.854 1.908 1.908 1.908h1.077V84.08a1.896 1.896 0 0 0 1.847 1.97h6.324a1.908 1.908 0 0 0 1.908-1.909V73.682h1.076a1.908 1.908 0 0 0 1.909-1.909V59.97a1.908 1.908 0 0 0-1.909-1.908l.013-.061zM80.99 46.612a4.38 4.38 0 1 1-4.378 4.379 4.391 4.391 0 0 1 4.379-4.38zm0-.612a4.99 4.99 0 1 0 0 9.981 4.99 4.99 0 0 0 0-9.981zM109.214 57.624c.716 0 1.296.58 1.296 1.296v11.804c0 .717-.58 1.297-1.296 1.297h-1.7v11.07c0 .716-.581 1.297-1.297 1.297h-6.324a1.223 1.223 0 0 1-1.297-1.297v-11.07h-1.688c-.716 0-1.296-.58-1.296-1.297V58.908c0-.716.58-1.296 1.296-1.296h12.306v.012zm0-.624H96.908A1.908 1.908 0 0 0 95 58.908v11.804c0 1.054.854 1.908 1.908 1.908h1.077V83.08a1.896 1.896 0 0 0 1.908 1.908h6.324a1.908 1.908 0 0 0 1.908-1.908V72.62h1.076a1.908 1.908 0 0 0 1.909-1.908V58.908A1.908 1.908 0 0 0 109.2 57h.013zM102.99 45.612a4.38 4.38 0 1 1-4.378 4.379 4.391 4.391 0 0 1 4.379-4.38zm0-.612a4.99 4.99 0 1 0 0 9.981 4.99 4.99 0 0 0 0-9.981zM133.214 57.624c.716 0 1.296.58 1.296 1.296v11.804c0 .717-.58 1.297-1.296 1.297h-1.7v11.07c0 .716-.581 1.297-1.297 1.297h-6.324a1.223 1.223 0 0 1-1.297-1.297v-11.07h-1.688c-.716 0-1.296-.58-1.296-1.297V58.908c0-.716.58-1.296 1.296-1.296h12.306v.012zm0-.624h-12.306A1.908 1.908 0 0 0 119 58.908v11.804c0 1.054.854 1.908 1.908 1.908h1.064V83.08a1.896 1.896 0 0 0 1.909 1.908h6.324a1.908 1.908 0 0 0 1.908-1.908V72.62h1.076a1.908 1.908 0 0 0 1.908-1.908V58.908A1.908 1.908 0 0 0 133.19 57h.025zM126.99 45.612a4.38 4.38 0 1 1-4.378 4.379 4.391 4.391 0 0 1 4.379-4.38zm0-.612a4.99 4.99 0 1 0 0 9.981 4.99 4.99 0 0 0 0-9.981zM158.214 58.612c.716 0 1.296.58 1.296 1.296v11.804c0 .716-.58 1.297-1.296 1.297h-1.688v11.07c0 .716-.58 1.296-1.297 1.296h-6.287a1.223 1.223 0 0 1-1.297-1.296v-11.07h-1.688c-.716 0-1.296-.58-1.296-1.297V59.908c0-.716.58-1.296 1.296-1.296h12.306-.05zm.049-.612h-12.355A1.908 1.908 0 0 0 144 59.908v11.804c0 1.054.854 1.908 1.908 1.908h1.077V84.08a1.896 1.896 0 0 0 1.957 1.97h6.324a1.908 1.908 0 0 0 1.908-1.909V73.682h1.076a1.908 1.908 0 0 0 1.909-1.909V59.97a1.908 1.908 0 0 0-1.909-1.908l.013-.061zM151.99 46.612a4.38 4.38 0 1 1-4.378 4.379 4.391 4.391 0 0 1 4.379-4.38zm0-.612a4.99 4.99 0 1 0 0 9.981 4.99 4.99 0 0 0 0-9.981zM182.226 58.612c.716 0 1.297.58 1.297 1.296v11.804c0 .716-.58 1.297-1.297 1.297h-1.688v11.07c0 .716-.58 1.296-1.297 1.296h-6.324a1.223 1.223 0 0 1-1.296-1.296v-11.07h-1.688c-.716 0-1.297-.58-1.297-1.297V59.908c0-.716.58-1.296 1.297-1.296h12.305-.012zm.012-.612h-12.33A1.908 1.908 0 0 0 168 59.908v11.804c0 1.054.854 1.908 1.908 1.908h1.077V84.08a1.896 1.896 0 0 0 1.908 1.908h6.324a1.908 1.908 0 0 0 1.908-1.908V73.62h1.076a1.908 1.908 0 0 0 1.909-1.908V59.908A1.908 1.908 0 0 0 182.2 58h.037zM175.99 46.612a4.38 4.38 0 1 1-4.378 4.379 4.391 4.391 0 0 1 4.379-4.38zm0-.612a4.99 4.99 0 1 0 0 9.981 4.99 4.99 0 0 0 0-9.981zM205.214 58.612c.716 0 1.296.58 1.296 1.296v11.804c0 .716-.58 1.297-1.296 1.297h-1.688v11.07c0 .716-.58 1.296-1.297 1.296h-6.336a1.223 1.223 0 0 1-1.297-1.296v-11.07h-1.688c-.716 0-1.296-.58-1.296-1.297V59.908c0-.716.58-1.296 1.296-1.296h12.306zm0-.612h-12.306A1.908 1.908 0 0 0 191 59.908v11.804c0 1.054.854 1.908 1.908 1.908h1.077V84.08a1.896 1.896 0 0 0 1.908 1.97h6.324a1.908 1.908 0 0 0 1.908-1.909V73.682h1.076a1.908 1.908 0 0 0 1.909-1.909V59.97a1.908 1.908 0 0 0-1.909-1.908l.013-.061zM198.99 46.612a4.38 4.38 0 1 1-4.378 4.379 4.391 4.391 0 0 1 4.379-4.38zm0-.612a4.99 4.99 0 1 0 0 9.981 4.99 4.99 0 0 0 0-9.981zM229.214 58.612c.716 0 1.296.58 1.296 1.296v11.804c0 .716-.58 1.297-1.296 1.297h-1.688v11.07c0 .716-.58 1.296-1.297 1.296h-6.324a1.223 1.223 0 0 1-1.297-1.296v-11.07h-1.688c-.716 0-1.296-.58-1.296-1.297V59.908c0-.716.58-1.296 1.296-1.296h12.306-.012zm.012-.612h-12.318A1.908 1.908 0 0 0 215 59.908v11.804c0 1.054.854 1.908 1.908 1.908h1.077V84.08a1.896 1.896 0 0 0 1.92 1.97h6.324a1.908 1.908 0 0 0 1.908-1.909V73.682h1.077a1.908 1.908 0 0 0 1.908-1.909V59.97a1.908 1.908 0 0 0-1.908-1.908l.012-.061zM222.99 46.612a4.38 4.38 0 1 1-4.378 4.379 4.391 4.391 0 0 1 4.379-4.38zm0-.612a4.99 4.99 0 1 0 0 9.981 4.99 4.99 0 0 0 0-9.981zM14.214 103.612c.716 0 1.296.58 1.296 1.296v11.804c0 .716-.58 1.297-1.296 1.297h-1.688v11.07c0 .716-.58 1.296-1.297 1.296H4.905a1.223 1.223 0 0 1-1.297-1.296v-11.07H1.92c-.716 0-1.296-.58-1.296-1.297v-11.804c0-.716.58-1.296 1.296-1.296h12.306-.012zm.012-.612H1.908A1.908 1.908 0 0 0 0 104.908v11.804c0 1.054.854 1.908 1.908 1.908h1.077v10.459a1.896 1.896 0 0 0 1.908 1.908h6.324a1.908 1.908 0 0 0 1.908-1.908V118.62h1.076a1.908 1.908 0 0 0 1.909-1.908v-11.804A1.908 1.908 0 0 0 14.2 103h.025zM7.99 92.612a4.38 4.38 0 1 1-4.378 4.379 4.391 4.391 0 0 1 4.379-4.38zm0-.612a4.99 4.99 0 1 0 0 9.981 4.99 4.99 0 0 0 0-9.981zM38.214 103.612c.716 0 1.296.58 1.296 1.296v11.804c0 .716-.58 1.297-1.296 1.297h-1.688v11.07c0 .716-.58 1.296-1.297 1.296h-6.324a1.223 1.223 0 0 1-1.297-1.296v-11.07H25.92c-.716 0-1.296-.58-1.296-1.297v-11.804c0-.716.58-1.296 1.296-1.296h12.306-.012zm.012-.612H25.908A1.908 1.908 0 0 0 24 104.908v11.804c0 1.054.854 1.908 1.908 1.908h1.077v10.459a1.896 1.896 0 0 0 1.908 1.908h6.287a1.908 1.908 0 0 0 1.908-1.908V118.62h1.077a1.908 1.908 0 0 0 1.908-1.908v-11.804A1.908 1.908 0 0 0 38.165 103h.061zM31.99 92.612a4.38 4.38 0 1 1-4.378 4.379 4.391 4.391 0 0 1 4.379-4.38zm0-.612a4.99 4.99 0 1 0 0 9.981 4.99 4.99 0 0 0 0-9.981zM63.214 104.612c.716 0 1.296.58 1.296 1.296v11.804c0 .716-.58 1.297-1.296 1.297h-1.688v11.07c0 .716-.58 1.296-1.297 1.296h-6.324a1.223 1.223 0 0 1-1.297-1.296v-11.07H50.92c-.716 0-1.296-.58-1.296-1.297v-11.804c0-.716.58-1.296 1.296-1.296h12.306-.012zm.012-.612H50.908A1.908 1.908 0 0 0 49 105.908v11.804c0 1.054.854 1.908 1.908 1.908h1.077v10.459a1.896 1.896 0 0 0 1.908 1.908h6.324a1.908 1.908 0 0 0 1.908-1.908V119.62h1.076a1.908 1.908 0 0 0 1.909-1.908v-11.804A1.908 1.908 0 0 0 63.2 104h.025zM56.99 92.612a4.38 4.38 0 1 1-4.378 4.379 4.391 4.391 0 0 1 4.379-4.38zm0-.612a4.99 4.99 0 1 0 0 9.981 4.99 4.99 0 0 0 0-9.981zM87.214 104.612c.716 0 1.296.58 1.296 1.296v11.804c0 .716-.58 1.297-1.296 1.297h-1.688v11.07c0 .716-.58 1.296-1.297 1.296h-6.397a1.223 1.223 0 0 1-1.297-1.296v-11.07h-1.688c-.716 0-1.297-.58-1.297-1.297v-11.804c0-.716.581-1.296 1.297-1.296h12.366zm-.061-.612H74.908A1.908 1.908 0 0 0 73 105.908v11.804c0 1.054.854 1.908 1.908 1.908h1.077v10.459a1.896 1.896 0 0 0 1.908 1.908h6.324a1.908 1.908 0 0 0 1.908-1.908V119.62h1.076a1.908 1.908 0 0 0 1.909-1.908v-11.804A1.908 1.908 0 0 0 87.2 104h-.048zM80.99 92.612a4.38 4.38 0 1 1-4.378 4.379 4.391 4.391 0 0 1 4.379-4.38zm0-.612a4.99 4.99 0 1 0 0 9.981 4.99 4.99 0 0 0 0-9.981zM109.214 103.612c.716 0 1.296.58 1.296 1.296v11.804c0 .716-.58 1.297-1.296 1.297h-1.7v11.07c0 .716-.581 1.296-1.297 1.296h-6.324a1.223 1.223 0 0 1-1.297-1.296v-11.07h-1.688c-.716 0-1.296-.58-1.296-1.297v-11.804c0-.716.58-1.296 1.296-1.296h12.306zm0-.612H96.908A1.908 1.908 0 0 0 95 104.908v11.804c0 1.054.854 1.908 1.908 1.908h1.077v10.459a1.896 1.896 0 0 0 1.908 1.908h6.324a1.908 1.908 0 0 0 1.908-1.908V118.62h1.076a1.908 1.908 0 0 0 1.909-1.908v-11.804A1.908 1.908 0 0 0 109.2 103h.013zM102.99 92.612a4.38 4.38 0 1 1-4.378 4.379 4.391 4.391 0 0 1 4.379-4.38zm0-.612a4.99 4.99 0 1 0 0 9.981 4.99 4.99 0 0 0 0-9.981zM133.214 103.612c.716 0 1.296.58 1.296 1.296v11.804c0 .716-.58 1.297-1.296 1.297h-1.7v11.07c0 .716-.581 1.296-1.297 1.296h-6.324a1.223 1.223 0 0 1-1.297-1.296v-11.07h-1.688c-.716 0-1.296-.58-1.296-1.297v-11.804c0-.716.58-1.296 1.296-1.296h12.306zm0-.612h-12.306a1.908 1.908 0 0 0-1.908 1.908v11.804c0 1.054.854 1.908 1.908 1.908h1.064v10.459a1.896 1.896 0 0 0 1.909 1.908h6.324a1.908 1.908 0 0 0 1.908-1.908V118.62h1.076a1.908 1.908 0 0 0 1.908-1.908v-11.804A1.908 1.908 0 0 0 133.19 103h.025zM126.99 92.612a4.38 4.38 0 1 1-4.378 4.379 4.391 4.391 0 0 1 4.379-4.38zm0-.612a4.99 4.99 0 1 0 0 9.981 4.99 4.99 0 0 0 0-9.981zM158.214 104.612c.716 0 1.296.58 1.296 1.296v11.804c0 .716-.58 1.297-1.296 1.297h-1.688v11.07c0 .716-.58 1.296-1.297 1.296h-6.287a1.223 1.223 0 0 1-1.297-1.296v-11.07h-1.688c-.716 0-1.296-.58-1.296-1.297v-11.804c0-.716.58-1.296 1.296-1.296h12.306-.05zm.049-.612h-12.355a1.908 1.908 0 0 0-1.908 1.908v11.804c0 1.054.854 1.908 1.908 1.908h1.077v10.459a1.896 1.896 0 0 0 1.908 1.908h6.324a1.908 1.908 0 0 0 1.908-1.908V119.62h1.076a1.908 1.908 0 0 0 1.909-1.908v-11.804A1.908 1.908 0 0 0 158.2 104h.062zM151.99 92.612a4.38 4.38 0 1 1-4.378 4.379 4.391 4.391 0 0 1 4.379-4.38zm0-.612a4.99 4.99 0 1 0 0 9.981 4.99 4.99 0 0 0 0-9.981zM182.226 104.612c.716 0 1.297.58 1.297 1.296v11.804c0 .716-.58 1.297-1.297 1.297h-1.688v11.07c0 .716-.58 1.296-1.297 1.296h-6.324a1.223 1.223 0 0 1-1.296-1.296v-11.07h-1.688c-.716 0-1.297-.58-1.297-1.297v-11.804c0-.716.58-1.296 1.297-1.296h12.305-.012zm.012-.612h-12.33a1.908 1.908 0 0 0-1.908 1.908v11.804c0 1.054.854 1.908 1.908 1.908h1.077v10.459a1.896 1.896 0 0 0 1.908 1.908h6.324a1.908 1.908 0 0 0 1.908-1.908V119.62h1.076a1.908 1.908 0 0 0 1.909-1.908v-11.804A1.908 1.908 0 0 0 182.2 104h.037zM175.99 92.612a4.38 4.38 0 1 1-4.378 4.379 4.391 4.391 0 0 1 4.379-4.38zm0-.612a4.99 4.99 0 1 0 0 9.981 4.99 4.99 0 0 0 0-9.981zM205.214 104.612c.716 0 1.296.58 1.296 1.296v11.804c0 .716-.58 1.297-1.296 1.297h-1.688v11.07c0 .716-.58 1.296-1.297 1.296h-6.336a1.223 1.223 0 0 1-1.297-1.296v-11.07h-1.688c-.716 0-1.296-.58-1.296-1.297v-11.804c0-.716.58-1.296 1.296-1.296h12.306zm0-.612h-12.306a1.908 1.908 0 0 0-1.908 1.908v11.804c0 1.054.854 1.908 1.908 1.908h1.077v10.459a1.896 1.896 0 0 0 1.908 1.908h6.324a1.908 1.908 0 0 0 1.908-1.908V119.62h1.076a1.908 1.908 0 0 0 1.909-1.908v-11.804A1.908 1.908 0 0 0 205.2 104h.013zM198.99 92.612a4.38 4.38 0 1 1-4.378 4.379 4.391 4.391 0 0 1 4.379-4.38zm0-.612a4.99 4.99 0 1 0 0 9.981 4.99 4.99 0 0 0 0-9.981zM229.214 104.612c.716 0 1.296.58 1.296 1.296v11.804c0 .716-.58 1.297-1.296 1.297h-1.688v11.07c0 .716-.58 1.296-1.297 1.296h-6.324a1.223 1.223 0 0 1-1.297-1.296v-11.07h-1.688c-.716 0-1.296-.58-1.296-1.297v-11.804c0-.716.58-1.296 1.296-1.296h12.306-.012zm.012-.612h-12.318a1.908 1.908 0 0 0-1.908 1.908v11.804c0 1.054.854 1.908 1.908 1.908h1.077v10.459a1.896 1.896 0 0 0 1.908 1.908h6.324a1.908 1.908 0 0 0 1.908-1.908V119.62h1.076a1.908 1.908 0 0 0 1.909-1.908v-11.804A1.908 1.908 0 0 0 229.2 104h.025zM222.99 92.612a4.38 4.38 0 1 1-4.378 4.379 4.391 4.391 0 0 1 4.379-4.38zm0-.612a4.99 4.99 0 1 0 0 9.981 4.99 4.99 0 0 0 0-9.981z"/>
        </g>
        <g fill-rule="nonzero">
            <path fill="#04ADE6" d="M311.198 135.614c0-7.58-3.563-14.16-8.653-16.874-3.817-1.96-26.033-12.798-42.917-19.054l-1.489-12.019a39.858 39.858 0 0 0 9.301-9.553A48.844 48.844 0 0 0 270.52 73h-58.912a48.518 48.518 0 0 0 2.9 4.815 40.188 40.188 0 0 0 9.366 9.683l-1.527 12.123c-6.668 2.986-15.701 6.737-23.947 10.228-8.525 3.596-15.904 6.776-19.213 9.008-5.28 3.93-8.39 10.206-8.36 16.874-1.272 8.956-2.544 18.042-3.816 27.036a2.052 2.052 0 0 0 .474 1.536c.359.422.873.675 1.421.697h144.188a1.97 1.97 0 0 0 1.421-.697c.36-.423.531-.979.474-1.536l-3.791-27.153z"/>
            <path fill="#000" d="M241.789 5.698c14.136 0 24.073 4.612 29.506 13.707 2.723 4.715 4.263 10.503 4.836 18.202v.039c.205 1.094.265 2.21.178 3.32v.4c.47 7.752.585 9.651-1.54 19.224a53.213 53.213 0 0 1-7.889 17.595 38.833 38.833 0 0 1-9.16 9.354l-.319.22v.387l1.476 11.86v.387l.369.129c16.745 6.175 39.139 17.053 42.841 18.926 5.09 2.752 8.322 9.147 8.322 16.29v.091l3.817 26.988c.031.37-.086.736-.326 1.016-.24.28-.582.45-.947.47H168.907a1.341 1.341 0 0 1-.947-.47 1.383 1.383 0 0 1-.326-1.016l.993-7.015c.928-6.537 1.883-13.307 2.862-19.895v-.078c-.034-6.41 2.973-12.444 8.08-16.213 3.181-2.157 10.18-5.167 19.086-8.914l5.56-2.325c6.49-2.713 13.208-5.53 18.412-7.855l.33-.142v-.362l1.553-11.989v-.387l-.306-.22a39.277 39.277 0 0 1-9.212-9.482 53.212 53.212 0 0 1-7.723-17.195c-1.896-10.645-2.303-15.387-1.654-19.469V41.2c.229-5.969 1.018-14.728 5.09-21.794 5.28-9.044 15.459-13.656 30.282-13.656h.713l.089-.051zm-.09-.595h-.712c-16.54 0-25.97 5.633-30.83 13.966-3.817 6.46-4.911 14.3-5.216 22.09-.675 4.277-.204 9.264 1.654 19.69a53.746 53.746 0 0 0 7.825 17.453 40.085 40.085 0 0 0 9.365 9.637l-1.438 11.989c-6.668 2.971-15.701 6.705-23.947 10.18-8.525 3.578-15.904 6.743-19.213 8.965-5.28 3.912-8.39 10.159-8.36 16.795-1.272 8.914-2.544 17.957-3.816 26.91a2.036 2.036 0 0 0 .47 1.523c.356.42.867.674 1.413.699h144.225a1.974 1.974 0 0 0 1.405-.703c.354-.42.522-.97.465-1.519l-3.817-26.975c0-7.544-3.563-14.094-8.652-16.794-3.817-1.95-26.033-12.738-42.918-18.965l-1.463-12.015a39.758 39.758 0 0 0 9.301-9.508 53.722 53.722 0 0 0 7.94-17.763c2.176-9.793 2.023-11.718 1.54-19.689.1-1.187.04-2.382-.179-3.552-.496-6.589-1.756-12.997-4.924-18.487C265.761 8.9 254.678 5 241.763 5l-.063.103z"/>
        </g>
        <text fill="#000" font-family="SourceSansPro-Light, Source Sans Pro" font-size="19" font-weight="300" transform="translate(-1 -27)">
            <tspan x="1" y="120">of Jordanians </tspan> <tspan x="1" y="144">interviewed said </tspan> <tspan x="1" y="168">that public sector </tspan> <tspan x="1" y="192">officials are corrupt</tspan>
        </text>
        <text fill="#000" font-family="SourceSansPro-Regular, Source Sans Pro" font-size="16" transform="translate(-1 -27)">
            <tspan x="37.16" y="253">But only 1 out of 25 admits to having </tspan> <tspan x="59.928" y="273">paid a bribe in the last 2 years</tspan>
        </text>
        <text fill="#000" font-family="SourceSansPro-Bold, Source Sans Pro" font-size="88" font-weight="bold" transform="translate(-1 -27)">
            <tspan x="0" y="87">57</tspan> <tspan x="92.928" y="87" font-family="ProximaNova-Black, Proxima Nova" font-weight="700">%</tspan> <tspan x="161.92" y="87" font-family="SourceSansPro-Light, Source Sans Pro" font-weight="300"> </tspan>
        </text>
        <path stroke="#000" stroke-linecap="square" d="M295.5 72.5H186.459"/>
        <text fill="#000" font-family="SourceSansPro-LightIt, Source Sans Pro" font-size="11" font-style="italic" font-weight="300" transform="translate(-1 -27)">
            <tspan x="57.167" y="464">Source: People and corruption: Middle East and </tspan> <tspan x="42.169" y="478">North Africa Survey 2016; Global Corruption Barometer</tspan>
        </text>
    </g>
</svg>
