<svg viewBox="0 0 250 250" xmlns="http://www.w3.org/2000/svg"><g fill="#3f494a"><path d="m101.48 121.05v7.81h19.52v23.44h23.44v70.33h-50.77v-12.5a11.46 11.46 0 0 0 15.63-10.93v-25l-15.63-19.54v-154.74h-7.82v136.76h-39.07v-105.5h-7.78v89.87h-39.11v109.41h31.26v-7.81h-23.44v-93.78h31.29v15.63h46.85v13.29l15.63 19.54v21.87a3.91 3.91 0 1 1 -7.81 0v-15.63h-7.82v46.89a3.91 3.91 0 1 1 -7.81 0v-35.16h-7.82v35.17a3.91 3.91 0 1 1 -7.81 0v-35.17h-7.82v35.17a3.91 3.91 0 1 1 -7.81 0v-78.16h-7.78v78.15a11.51 11.51 0 0 0 11.72 11.72 10.91 10.91 0 0 0 7.81-3.13 11.33 11.33 0 0 0 15.63 0 10.91 10.91 0 0 0 7.81 3.13 11.51 11.51 0 0 0 11.72-11.72h58.61v-83.62l-25.79-25.79zm27.35 13.29 10.17 10.16h-10.16z"/><path d="m250 97.61v-74.24h-35.2v-3.91a11.51 11.51 0 0 0 -11.72-11.72 10.91 10.91 0 0 0 -7.81 3.13 11.33 11.33 0 0 0 -15.63 0 10.91 10.91 0 0 0 -7.81-3.13 11.51 11.51 0 0 0 -11.73 11.72v3.91h-50.8v74.24h35.17v-7.82h-16a16.53 16.53 0 0 0 -11.33-11.33v-36.34a16.53 16.53 0 0 0 11.33-11.33h31.63v8.6a11.46 11.46 0 0 0 -15.63 10.94v25l15.63 19.54v155.13h7.81v-136.76h39.09v105.5h7.81v-113.32h-46.9v-13.28l-15.63-19.54v-21.88a3.91 3.91 0 1 1 7.81 0v15.63h7.81v-46.89a3.91 3.91 0 0 1 7.81 0v35.17h7.81v-35.17a3.91 3.91 0 0 1 7.81 0v35.17h7.81v-35.17a3.91 3.91 0 1 1 7.81 0v78.15zm-35.2-66.43h16a16.53 16.53 0 0 0 11.33 11.33v36.34a16.53 16.53 0 0 0 -11.33 11.33h-16z"/><path d="m226.52 58.53h7.81v7.81h-7.81z"/><path d="m124.93 58.53h7.81v7.81h-7.81z"/></g></svg>