<svg id="Layer_1" data-name="Layer 1" xmlns="http://www.w3.org/2000/svg" viewBox="0 0 250 250"><defs><style>.cls-1{fill:#3f494a;}</style></defs><title>Elections</title><path class="cls-1" d="M216.41,109.38H175.78V0H168V109.38h-7.81V50.78H128.91v7.81h23.44V125H140.63v7.81h39.06V125H160.16v-7.81h53.12l23.44,23.44h-200L13.28,117.19H74.22v-7.81H0v107L33.59,250H250V143ZM7.81,122.66l23.44,23.44v90.63L7.81,213.28ZM39.06,242.19V148.44H242.19v93.75Z"/><path class="cls-1" d="M82,125H66.41v7.81h35.16V125H89.84V58.59h7.81v7.81a11.72,11.72,0,0,0,23.44,0V52.73l23.44-15.62V23.44h-7.81V33.2L113.28,48.83V66.41a3.91,3.91,0,0,1-7.81,0V36.72L125,17.19V0h-7.81V14.06L97.66,33.59V50.78H82Z"/><rect class="cls-1" x="136.72" y="191.41" width="7.81" height="7.81"/><rect class="cls-1" x="152.34" y="191.41" width="7.81" height="7.81"/><rect class="cls-1" x="121.09" y="191.41" width="7.81" height="7.81"/></svg>