<svg id="Layer_1" data-name="Layer 1" xmlns="http://www.w3.org/2000/svg" viewBox="0 0 250 250"><defs><style>.cls-1{fill:#3f494a;}</style></defs><title>Wasta</title><path class="cls-1" d="M22.18,76.5a6.55,6.55,0,0,0-6.76-.93c-5.42,2-12,9.78-13,15.5-.66,3.67,1,5.7,2,6.59l40.36,34.69a4.25,4.25,0,0,0,2.82,1,6.22,6.22,0,0,0,2-.38c4.22-1.53,13.78-9.85,14.88-15.92a6,6,0,0,0-1.93-5.88Zm24.63,47.67L9.75,92.45c.12-.75.94-2.89,3.24-5.63a19.81,19.81,0,0,1,4.71-4.2l39.2,33.69c-1,2.2-5.63,7-8.61,8.9l-1.92-1.94Z"/><path class="cls-1" d="M22.59,162.35A13.32,13.32,0,1,0,9.42,149,13.26,13.26,0,0,0,22.59,162.35Zm0-19A5.72,5.72,0,1,1,16.93,149,5.69,5.69,0,0,1,22.59,143.32Z"/><path class="cls-1" d="M33.35,163H11.83C5.86,163,0,168.95,0,175V198.1a11,11,0,0,0,7.24,10.33l2.2,37.79,3.44,3.28H32.31l3.44-3.28,2.2-37.79a11,11,0,0,0,7.24-10.33V175C45.19,168.95,39.32,163,33.35,163ZM16.72,241.89l-2.16-37.18-3.44-3.28h-.3a3.33,3.33,0,0,1-3.3-3.34V175c0-1.83,2.5-4.36,4.31-4.36H33.35c1.82,0,4.32,2.53,4.32,4.36V198.1a3.33,3.33,0,0,1-3.31,3.34h-.3l-3.44,3.28-2.16,37.18Z"/><path class="cls-1" d="M122.37,130.22l10.83-10.27c.48-.45,1.2-1.28,2-2.24,1.57-1.81,4.21-4.83,5.33-5.2L142,112l-1.29-.87c-15.68-10.54-40.82-34-44.75-37.73l2.13-2.52a7.22,7.22,0,0,0,3.71,1.2,7.13,7.13,0,0,0,5.92-2.63,7.56,7.56,0,0,0-.84-10.55L66.55,24.24a7.35,7.35,0,0,0-10.44.84,7.57,7.57,0,0,0,.46,10.2L33.15,63.11A7.35,7.35,0,0,0,23,64.18a7.55,7.55,0,0,0,.84,10.55l40.36,34.71a7.26,7.26,0,0,0,4.52,1.77,7.37,7.37,0,0,0,5.92-2.63,7.55,7.55,0,0,0,0-9.69L77.92,95ZM68.65,103.3,29.38,69.58l8.5-.71.31,0L62.77,39.63l.21-.25-.89-9,39.52,34L93,65.22l-3.43,4.07.5,9,.22.21c2.31,2.2,22.82,21.54,39.38,34.07l-.54.62c-.46.53-.85,1-1.12,1.24l-6.12,5.8L82,88.55l-.24-.18-8.86.87-4.64,5.43Zm.32,7.14Z"/><path class="cls-1" d="M108.39,57.31a4.24,4.24,0,0,0,2.82,1,6.24,6.24,0,0,0,2-.38C117.47,56.43,127,48.1,128.11,42a6,6,0,0,0-1.93-5.88L85.83,1.46C82.11-1.71,76.4.36,70.92,6.87a21.18,21.18,0,0,0-4.86,8.91c-.58,2.87.1,5.23,2,6.84ZM81.35,7.6l39.2,33.69c-1,2.24-5.78,7.19-8.75,9L73.4,17.42c.12-.75.94-2.89,3.24-5.62A20.22,20.22,0,0,1,81.35,7.6Z"/><path class="cls-1" d="M237.67,183.3l-.07-.31a9.62,9.62,0,0,0-1.84-4.37,17.67,17.67,0,0,0-3.58-3.21l-24.43-17.63-4.6.56L185.45,179l-.21.25.48,5,25.66,20.32a8.16,8.16,0,0,0,4.46,1.28,9.82,9.82,0,0,0,2.24-.27c9.47-2.2,19.49-17.82,19.59-18l.27-3.47-.08-.17A4.36,4.36,0,0,1,237.67,183.3Zm-7.31,1.76c-3.49,5-10,12.26-14,13.18a2.29,2.29,0,0,1-.84.07L193.71,181l12.69-14.85L228,181.68a11.61,11.61,0,0,1,2,1.69,12.43,12.43,0,0,1,.35,1.32Z"/><path class="cls-1" d="M242.57,89.54l-27.88,36.25L184.58,101l37.13-44-7.43-6.1L174.1,98.69l-9.33,11.6-25.1,5.59-.26.06-16.6,20.61a12.85,12.85,0,0,0,1.8,18.36l.48-.59h0l-6.88,15h0l-.58-.48L115.05,172a12.85,12.85,0,0,0,1.8,18.36,11.93,11.93,0,0,0,8.14,2.83,12.2,12.2,0,0,0,4.38,7.47,11.93,11.93,0,0,0,8.14,2.83A12.19,12.19,0,0,0,141.9,211a12.78,12.78,0,0,0,8.14,3,12.36,12.36,0,0,0,1.32-.07A12.92,12.92,0,0,0,160,209l49.28-62.85.35-.44-5.09-7.39-52,64.57a3.34,3.34,0,0,1-2.22,1.33,3.39,3.39,0,0,1-2.42-.83,3.15,3.15,0,0,1-.45-4.69l23.1-28.7.47-.59-7.43-6.1L140.1,192.64a3.34,3.34,0,0,1-2.22,1.33,3.21,3.21,0,0,1-2.42-.83,3.34,3.34,0,0,1-1.29-2.23,3.4,3.4,0,0,1,.84-2.47l23.1-28.7.47-.59-7.43-6.1-23.58,29.29a3.06,3.06,0,0,1-4.64.51,3.15,3.15,0,0,1-.46-4.7l30.8-38.27.47-.59-7.43-6.1-10.74,13.34a3.07,3.07,0,0,1-4.64.51,3.34,3.34,0,0,1-1.29-2.23,3.4,3.4,0,0,1,.84-2.46l14.21-17.66,25.1-5.59.26-.06,8.42-10.46,37,30.41.6.49,33.49-43.24.45-.59Z"/></svg>