<svg xmlns="http://www.w3.org/2000/svg" width="314" height="450" viewBox="0 0 314 450">
    <g fill="none" fill-rule="evenodd" transform="translate(-3 -8)">
        <text fill="#9E9E9E" font-family="SourceSansPro-LightIt, Source Sans Pro" font-size="12" font-style="italic" font-weight="300">
            <tspan x="37" y="422">data from people interviewed</tspan>
        </text>
        <text fill="#9E9E9E" font-family="SourceSansPro-LightIt, Source Sans Pro" font-size="12" font-style="italic" font-weight="300">
            <tspan x="37" y="246">data from people interviewed</tspan>
        </text>
        <text fill="#000" font-family="SourceSansPro-Light, Source Sans Pro" font-size="29" font-weight="300">
            <tspan x="3.261" y="29">Wasta is the most common </tspan> <tspan x="54.273" y="66">form of corruption</tspan>
        </text>
        <g fill-rule="nonzero" transform="translate(37 183)">
            <path fill="#04ADE6" d="M5.056 41.2h6.43a1.964 1.964 0 0 0 2.002-1.901v-10.76h1.102a1.964 1.964 0 0 0 1.951-1.952V14.513a1.964 1.964 0 0 0-1.951-1.951H2.003A1.964 1.964 0 0 0 .05 14.513v12.074a1.964 1.964 0 0 0 1.952 1.952h1.1v10.76a1.94 1.94 0 0 0 1.953 1.902z"/>
            <circle cx="8.284" cy="5.568" r="5.105" fill="#04ADE6"/>
            <path fill="#04ADE6" d="M29.829 41.2h6.48a1.964 1.964 0 0 0 1.953-1.901v-10.76h1.1a1.964 1.964 0 0 0 1.952-1.952V14.513a1.964 1.964 0 0 0-1.951-1.951H26.776a1.964 1.964 0 0 0-1.952 1.951v12.074a1.964 1.964 0 0 0 1.952 1.952h1.1v10.76a1.94 1.94 0 0 0 1.953 1.902z"/>
            <circle cx="33.057" cy="5.568" r="5.105" fill="#04ADE6"/>
            <path fill="#04ADE6" d="M54.614 41.2h6.481a1.964 1.964 0 0 0 1.94-1.901v-10.76h1.1a1.964 1.964 0 0 0 1.952-1.952V14.513a1.964 1.964 0 0 0-1.951-1.951H51.524a1.964 1.964 0 0 0-1.952 1.951v12.074a1.964 1.964 0 0 0 1.952 1.952h1.1v10.76a1.94 1.94 0 0 0 1.99 1.902z"/>
            <circle cx="57.83" cy="5.568" r="5.105" fill="#04ADE6"/>
            <path fill="#000" d="M88.921 13.187c.733 0 1.326.594 1.326 1.326v12.074c0 .733-.593 1.326-1.326 1.326h-1.739V39.3c0 .732-.594 1.326-1.326 1.326h-6.481a1.251 1.251 0 0 1-1.326-1.326V27.913h-1.727a1.326 1.326 0 0 1-1.326-1.326V14.513c0-.732.593-1.326 1.326-1.326h12.6zm0-.625h-12.6a1.964 1.964 0 0 0-1.95 1.951v12.074a1.964 1.964 0 0 0 1.95 1.952h1.102v10.76a1.94 1.94 0 0 0 1.952 1.952h6.48a1.964 1.964 0 0 0 1.953-1.952v-10.76h1.1a1.964 1.964 0 0 0 1.952-1.952V14.513a1.964 1.964 0 0 0-1.951-1.951h.012zM82.603 1.076a4.48 4.48 0 1 1-4.48 4.48 4.492 4.492 0 0 1 4.48-4.48zm0-.626a5.105 5.105 0 1 0 0 10.21 5.105 5.105 0 0 0 0-10.21zM113.694 13.187c.733 0 1.326.594 1.326 1.326v12.074c0 .733-.593 1.326-1.326 1.326h-1.726V39.3c0 .732-.594 1.326-1.327 1.326h-6.48a1.251 1.251 0 0 1-1.34-1.326V27.913h-1.726a1.326 1.326 0 0 1-1.326-1.326V14.513c0-.732.594-1.326 1.326-1.326h12.6zm0-.625h-12.599a1.964 1.964 0 0 0-1.952 1.951v12.074a1.964 1.964 0 0 0 1.952 1.952h1.101v10.76a1.94 1.94 0 0 0 1.952 1.952h6.48a1.964 1.964 0 0 0 1.953-1.952v-10.76h1.1a1.964 1.964 0 0 0 1.953-1.952V14.513a1.964 1.964 0 0 0-1.952-1.951h.012zM107.376 1.076a4.48 4.48 0 1 1-4.48 4.48 4.492 4.492 0 0 1 4.48-4.48zm0-.626a5.105 5.105 0 1 0 0 10.21 5.105 5.105 0 0 0 0-10.21zM139.218 13.963c.732 0 1.326.594 1.326 1.326v12.074c0 .732-.594 1.326-1.326 1.326h-1.727v11.336c0 .732-.593 1.326-1.326 1.326h-6.48a1.251 1.251 0 0 1-1.327-1.326V28.689h-1.764a1.326 1.326 0 0 1-1.327-1.326V15.289c0-.732.594-1.326 1.327-1.326h12.624zm-.025-.626h-12.6a1.964 1.964 0 0 0-1.951 1.952v12.074a1.964 1.964 0 0 0 1.952 1.927h1.1V40a1.94 1.94 0 0 0 1.953 1.951h6.48A1.964 1.964 0 0 0 138.08 40V29.29h1.101a1.964 1.964 0 0 0 1.952-1.952V15.264a1.964 1.964 0 0 0-1.952-1.952l.013.025zM132.85 1.864a4.48 4.48 0 1 1-4.48 4.48 4.492 4.492 0 0 1 4.48-4.48zm0-.625a5.105 5.105 0 1 0 0 10.21 5.105 5.105 0 0 0 0-10.21zM163.991 13.963c.732 0 1.326.594 1.326 1.326v12.074c0 .732-.594 1.326-1.326 1.326h-1.727v11.336c0 .732-.593 1.326-1.326 1.326h-6.48a1.251 1.251 0 0 1-1.327-1.326V28.689h-1.727a1.326 1.326 0 0 1-1.326-1.326V15.289c0-.732.594-1.326 1.326-1.326h12.6-.013zm.013-.626h-12.6a1.964 1.964 0 0 0-1.952 1.952v12.074a1.964 1.964 0 0 0 1.952 1.952h1.101v10.71a1.94 1.94 0 0 0 1.952 1.952h6.481a1.964 1.964 0 0 0 1.952-1.952V29.29h1.101a1.964 1.964 0 0 0 1.952-1.952V15.264a1.964 1.964 0 0 0-1.952-1.952l.013.025zM157.685 1.864a4.48 4.48 0 1 1-4.479 4.48 4.492 4.492 0 0 1 4.48-4.48zm0-.625a5.105 5.105 0 1 0 0 10.21 5.105 5.105 0 0 0 0-10.21zM188.764 13.963c.733 0 1.326.594 1.326 1.326v12.074c0 .732-.593 1.326-1.326 1.326h-1.727v11.336c0 .732-.593 1.326-1.326 1.326h-6.48a1.251 1.251 0 0 1-1.327-1.326V28.689h-1.727a1.326 1.326 0 0 1-1.326-1.326V15.289c0-.732.594-1.326 1.326-1.326h12.6-.013zm.013-.626h-12.6a1.964 1.964 0 0 0-1.951 1.952v12.074a1.964 1.964 0 0 0 1.951 1.952h1.101v10.71a1.94 1.94 0 0 0 1.952 1.952h6.481a1.964 1.964 0 0 0 1.952-1.952V29.29h1.101a1.964 1.964 0 0 0 1.952-1.952V15.264a1.964 1.964 0 0 0-1.952-1.952l.013.025zM182.458 1.864a4.48 4.48 0 1 1-4.479 4.48 4.492 4.492 0 0 1 4.48-4.48zm0-.625a5.105 5.105 0 1 0 0 10.21 5.105 5.105 0 0 0 0-10.21zM213.537 13.963c.733 0 1.326.594 1.326 1.326v12.074c0 .732-.593 1.326-1.326 1.326h-1.726v11.336c0 .732-.594 1.326-1.327 1.326h-6.48a1.251 1.251 0 0 1-1.327-1.326V28.689h-1.727a1.326 1.326 0 0 1-1.326-1.326V15.289c0-.732.594-1.326 1.326-1.326h12.6-.013zm.013-.626h-12.6A1.964 1.964 0 0 0 199 15.29v12.074a1.964 1.964 0 0 0 1.951 1.952h1.101v10.71a1.94 1.94 0 0 0 1.952 1.952h6.419a1.964 1.964 0 0 0 1.952-1.952V29.29h1.1a1.964 1.964 0 0 0 1.952-1.952V15.264a1.964 1.964 0 0 0-1.951-1.952l.075.025zM207.231 1.864a4.48 4.48 0 1 1-4.479 4.48 4.492 4.492 0 0 1 4.48-4.48zm0-.625a5.105 5.105 0 1 0 0 10.21 5.105 5.105 0 0 0 0-10.21zM238.323 13.963c.732 0 1.326.594 1.326 1.326v12.074c0 .732-.594 1.326-1.326 1.326h-1.727v11.336c0 .732-.594 1.326-1.326 1.326h-6.481a1.251 1.251 0 0 1-1.326-1.326V28.689h-1.727a1.326 1.326 0 0 1-1.326-1.326V15.289c0-.732.594-1.326 1.326-1.326h12.6-.013zm.012-.626h-12.599a1.964 1.964 0 0 0-1.952 1.952v12.074a1.964 1.964 0 0 0 1.952 1.952h1.101v10.71a1.94 1.94 0 0 0 1.952 1.952h6.48a1.964 1.964 0 0 0 1.953-1.952V29.29h1.1a1.964 1.964 0 0 0 1.952-1.952V15.264a1.964 1.964 0 0 0-1.951-1.952l.012.025zM232.004 1.864a4.48 4.48 0 1 1-4.479 4.48 4.492 4.492 0 0 1 4.48-4.48zm0-.625a5.105 5.105 0 1 0 0 10.21 5.105 5.105 0 0 0 0-10.21z"/>
        </g>
        <text fill="#000" font-family="Assistant-ExtraBold, Assistant" font-size="78.16" font-weight="600">
            <tspan x="36" y="163">33</tspan> <tspan x="120.413" y="163" font-family="ProximaNova-Black, Proxima Nova" font-weight="700">%</tspan>
        </text>
        <text fill="#000" font-family="SourceSansPro-Regular, Source Sans Pro" font-size="16">
            <tspan x="195" y="125">Used it to </tspan> <tspan x="195" y="145">get a job for </tspan> <tspan x="195" y="165">their family</tspan>
        </text>
        <path fill="#04ADE6" fill-rule="nonzero" d="M43.005 400.64h6.43a1.964 1.964 0 0 0 2.003-1.903v-10.76h1.1a1.964 1.964 0 0 0 1.952-1.951v-12.074A1.964 1.964 0 0 0 52.54 372H39.952A1.964 1.964 0 0 0 38 373.952v12.074a1.964 1.964 0 0 0 1.952 1.951h1.1v10.76a1.94 1.94 0 0 0 1.953 1.902z"/>
        <circle cx="46.105" cy="365.105" r="5.105" fill="#04ADE6" fill-rule="nonzero"/>
        <path fill="#04ADE6" fill-rule="nonzero" d="M68.005 400.64h6.48a1.964 1.964 0 0 0 1.953-1.903v-10.76h1.1a1.964 1.964 0 0 0 1.952-1.951v-12.074A1.964 1.964 0 0 0 77.54 372H64.952A1.964 1.964 0 0 0 63 373.952v12.074a1.964 1.964 0 0 0 1.952 1.951h1.1v10.76a1.94 1.94 0 0 0 1.953 1.902z"/>
        <circle cx="71.105" cy="365.105" r="5.105" fill="#04ADE6" fill-rule="nonzero"/>
        <path fill="#04ADE6" fill-rule="nonzero" d="M93.042 400.64h6.481a1.964 1.964 0 0 0 1.94-1.903v-10.76h1.1a1.964 1.964 0 0 0 1.952-1.951v-12.074a1.964 1.964 0 0 0-1.951-1.952H89.952A1.964 1.964 0 0 0 88 373.952v12.074a1.964 1.964 0 0 0 1.952 1.951h1.1v10.76a1.94 1.94 0 0 0 1.99 1.902z"/>
        <circle cx="96.105" cy="364.105" r="5.105" fill="#04ADE6" fill-rule="nonzero"/>
        <g fill="#04ADE6" fill-rule="nonzero" transform="translate(112 359)">
            <path d="M5.042 41.64h6.481a1.964 1.964 0 0 0 1.94-1.903v-10.76h1.1a1.964 1.964 0 0 0 1.952-1.951V14.952A1.964 1.964 0 0 0 14.564 13H1.952A1.964 1.964 0 0 0 0 14.952v12.074a1.964 1.964 0 0 0 1.952 1.951h1.1v10.76a1.94 1.94 0 0 0 1.99 1.902z"/>
            <circle cx="8.105" cy="5.105" r="5.105"/>
        </g>
        <path fill="#000" fill-rule="nonzero" d="M151.551 372.626c.732 0 1.326.593 1.326 1.326v12.074c0 .732-.594 1.326-1.326 1.326h-1.727v11.385c0 .733-.593 1.327-1.326 1.327h-6.48a1.251 1.251 0 0 1-1.34-1.327v-11.385h-1.726a1.326 1.326 0 0 1-1.326-1.326v-12.074c0-.733.593-1.326 1.326-1.326h12.599zm0-.626h-12.6a1.964 1.964 0 0 0-1.951 1.952v12.074a1.964 1.964 0 0 0 1.952 1.951h1.1v10.76a1.94 1.94 0 0 0 1.953 1.952h6.48a1.964 1.964 0 0 0 1.953-1.952v-10.76h1.1a1.964 1.964 0 0 0 1.952-1.951v-12.074A1.964 1.964 0 0 0 151.54 372h.012zM145.105 360.626a4.48 4.48 0 1 1-4.48 4.479 4.492 4.492 0 0 1 4.48-4.48zm0-.626a5.105 5.105 0 1 0 0 10.21 5.105 5.105 0 0 0 0-10.21zM176.576 372.65c.733 0 1.326.594 1.326 1.327v12.074c0 .732-.593 1.326-1.326 1.326h-1.727v11.335c0 .733-.593 1.327-1.326 1.327h-6.48a1.251 1.251 0 0 1-1.327-1.327v-11.335h-1.764a1.326 1.326 0 0 1-1.326-1.326v-12.074c0-.733.593-1.326 1.326-1.326h12.624zm-.025-.625h-12.6a1.964 1.964 0 0 0-1.951 1.952v12.074a1.964 1.964 0 0 0 1.952 1.926h1.1v10.71a1.94 1.94 0 0 0 1.953 1.952h6.48a1.964 1.964 0 0 0 1.953-1.952v-10.71h1.1a1.964 1.964 0 0 0 1.952-1.951v-12.074A1.964 1.964 0 0 0 176.54 372l.012.025zM171.105 360.626a4.48 4.48 0 1 1-4.48 4.479 4.492 4.492 0 0 1 4.48-4.48zm0-.626a5.105 5.105 0 1 0 0 10.21 5.105 5.105 0 0 0 0-10.21zM201.539 372.65c.732 0 1.326.594 1.326 1.327v12.074c0 .732-.594 1.326-1.326 1.326h-1.727v11.335c0 .733-.594 1.327-1.326 1.327h-6.481a1.251 1.251 0 0 1-1.327-1.327v-11.335h-1.726a1.326 1.326 0 0 1-1.326-1.326v-12.074c0-.733.593-1.326 1.326-1.326h12.599-.012zm.012-.625h-12.6a1.964 1.964 0 0 0-1.951 1.952v12.074a1.964 1.964 0 0 0 1.952 1.951h1.1v10.71a1.94 1.94 0 0 0 1.953 1.952h6.48a1.964 1.964 0 0 0 1.953-1.952v-10.735h1.1a1.964 1.964 0 0 0 1.952-1.951v-12.074A1.964 1.964 0 0 0 201.54 372l.012.025zM195.105 360.626a4.48 4.48 0 1 1-4.48 4.479 4.492 4.492 0 0 1 4.48-4.48zm0-.626a5.105 5.105 0 1 0 0 10.21 5.105 5.105 0 0 0 0-10.21zM226.539 372.65c.732 0 1.326.594 1.326 1.327v12.074c0 .732-.594 1.326-1.326 1.326h-1.727v11.335c0 .733-.594 1.327-1.326 1.327h-6.481a1.251 1.251 0 0 1-1.327-1.327v-11.335h-1.726a1.326 1.326 0 0 1-1.326-1.326v-12.074c0-.733.593-1.326 1.326-1.326h12.599-.012zm.012-.625h-12.6a1.964 1.964 0 0 0-1.951 1.952v12.074a1.964 1.964 0 0 0 1.952 1.951h1.1v10.71a1.94 1.94 0 0 0 1.953 1.952h6.48a1.964 1.964 0 0 0 1.953-1.952v-10.735h1.1a1.964 1.964 0 0 0 1.952-1.951v-12.074A1.964 1.964 0 0 0 226.54 372l.012.025zM220.105 360.626a4.48 4.48 0 1 1-4.48 4.479 4.492 4.492 0 0 1 4.48-4.48zm0-.626a5.105 5.105 0 1 0 0 10.21 5.105 5.105 0 0 0 0-10.21zM251.539 372.65c.732 0 1.326.594 1.326 1.327v12.074c0 .732-.594 1.326-1.326 1.326h-1.727v11.335c0 .733-.594 1.327-1.326 1.327h-6.481a1.251 1.251 0 0 1-1.327-1.327v-11.335h-1.726a1.326 1.326 0 0 1-1.326-1.326v-12.074c0-.733.593-1.326 1.326-1.326h12.599-.012zm.012-.625h-12.6a1.964 1.964 0 0 0-1.951 1.952v12.074a1.964 1.964 0 0 0 1.952 1.951h1.1v10.71a1.94 1.94 0 0 0 1.953 1.952h6.418a1.964 1.964 0 0 0 1.952-1.952v-10.735h1.101a1.964 1.964 0 0 0 1.952-1.951v-12.074a1.964 1.964 0 0 0-1.952-1.952l.075.025zM245.105 360.626a4.48 4.48 0 1 1-4.48 4.479 4.492 4.492 0 0 1 4.48-4.48zm0-.626a5.105 5.105 0 1 0 0 10.21 5.105 5.105 0 0 0 0-10.21zM276.539 372.65c.732 0 1.326.594 1.326 1.327v12.074c0 .732-.594 1.326-1.326 1.326h-1.727v11.335c0 .733-.594 1.327-1.326 1.327h-6.481a1.251 1.251 0 0 1-1.327-1.327v-11.335h-1.726a1.326 1.326 0 0 1-1.326-1.326v-12.074c0-.733.593-1.326 1.326-1.326h12.599-.012zm.012-.625h-12.6a1.964 1.964 0 0 0-1.951 1.952v12.074a1.964 1.964 0 0 0 1.952 1.951h1.1v10.71a1.94 1.94 0 0 0 1.953 1.952h6.48a1.964 1.964 0 0 0 1.953-1.952v-10.735h1.1a1.964 1.964 0 0 0 1.952-1.951v-12.074A1.964 1.964 0 0 0 276.54 372l.012.025zM270.105 360.626a4.48 4.48 0 1 1-4.48 4.479 4.492 4.492 0 0 1 4.48-4.48zm0-.626a5.105 5.105 0 1 0 0 10.21 5.105 5.105 0 0 0 0-10.21z"/>
        <text fill="#000" font-family="Assistant-ExtraBold, Assistant" font-size="78.16" font-weight="600">
            <tspan x="37" y="339">48</tspan> <tspan x="121.413" y="339" font-family="ProximaNova-Black, Proxima Nova" font-weight="700">%</tspan>
        </text>
        <text fill="#000" font-family="SourceSansPro-Regular, Source Sans Pro" font-size="16">
            <tspan x="196" y="301">Used it to </tspan> <tspan x="196" y="321">speed up</tspan> <tspan x="196" y="341">paperwork</tspan>
        </text>
        <text fill="#000" font-family="SourceSansPro-LightIt, Source Sans Pro" font-size="11" font-style="italic" font-weight="300">
            <tspan x="37" y="457">Source: The Jordan Times</tspan>
        </text>
    </g>
</svg>
