<svg enable-background="new 0 0 188.5 327" viewBox="0 0 188.5 327" xmlns="http://www.w3.org/2000/svg" xmlns:xlink="http://www.w3.org/1999/xlink"><clipPath id="a"><path d="m-187.5-340h375v667h-375z"/></clipPath><clipPath id="b"><path d="m1.5-4h288v396h-288z"/></clipPath><clipPath id="c"><path d="m1.5-4h287.9v396h-287.9z"/></clipPath><clipPath id="d"><path d="m1.5-4h186v331h-186z"/></clipPath><clipPath id="e"><path d="m-16.5-25h306v423h-306z"/></clipPath><clipPath id="f"><path d="m1.5-4h287.9v396h-287.9z"/></clipPath><clipPath id="g"><path d="m1.5-4h186v331h-186z"/></clipPath><clipPath id="h"><path d="m244.4 128.9c0 30.1-14.1 53.9-27.8 77-13.6 22.9-27.6 46.5-27.6 76.2s14 53.3 27.6 76.2c7.3 12.3 14.8 24.9 20.1 38.4l-1.4.5c-5.3-13.4-12.7-26-20-38.2-13.7-23-27.8-46.9-27.8-77s14.1-53.9 27.8-77c13.6-22.9 27.6-46.5 27.6-76.2s-14-53.4-27.6-76.2c-13.7-23-27.8-46.9-27.8-77h1.5c0 29.7 14 53.4 27.6 76.2 13.6 23.2 27.8 47 27.8 77.1"/></clipPath><clipPath id="i"><path d="m1.5-4h186v331h-186z"/></clipPath><clipPath id="j"><path d="m234.3 128.9c0 30.1-14.1 53.9-27.8 77-13.5 22.9-27.5 46.5-27.5 76.2s14 53.4 27.6 76.2c7.3 12.3 14.8 24.9 20.1 38.4l-1.4.5c-5.3-13.4-12.7-26-20-38.2-13.7-23-27.8-46.9-27.8-77s14.1-53.9 27.8-77c13.6-22.9 27.6-46.5 27.6-76.2s-14-53.4-27.6-76.2c-13.7-23-27.8-46.9-27.8-77h1.5c0 29.7 14 53.4 27.6 76.2 13.6 23.2 27.7 47 27.7 77.1"/></clipPath><clipPath id="k"><path d="m1.5-4h186v331h-186z"/></clipPath><clipPath id="l"><path d="m224.2 128.9c0 30.1-14.1 53.9-27.8 77-13.6 22.9-27.6 46.5-27.6 76.2s14 53.4 27.6 76.2c7.3 12.3 14.8 24.9 20.1 38.4l-1.4.5c-5.3-13.4-12.7-26-20-38.2-13.7-23-27.8-46.9-27.8-77s14.1-53.9 27.8-77c13.6-22.9 27.6-46.5 27.6-76.2s-14-53.4-27.6-76.2c-13.7-23-27.8-46.9-27.8-77h1.5c0 29.7 14 53.4 27.6 76.2 13.7 23.2 27.8 47 27.8 77.1"/></clipPath><clipPath id="m"><path d="m1.5-4h186v331h-186z"/></clipPath><clipPath id="n"><path d="m214.2 128.9c0 30.1-14.1 53.9-27.8 77-13.6 22.9-27.6 46.5-27.6 76.2s14 53.4 27.6 76.2c7.3 12.3 14.8 24.9 20.1 38.4l-1.4.5c-5.3-13.4-12.7-26-20-38.2-13.7-23-27.8-46.9-27.8-77s14.1-53.9 27.8-77c13.6-22.9 27.6-46.5 27.6-76.2s-14-53.4-27.6-76.2c-13.7-23-27.8-46.9-27.8-77h1.5c0 29.7 14 53.4 27.6 76.2 13.6 23.2 27.8 47 27.8 77.1"/></clipPath><clipPath id="o"><path d="m1.5-4h186v331h-186z"/></clipPath><clipPath id="p"><path d="m204.1 128.9c0 30.1-14.1 53.9-27.8 77-13.6 22.9-27.6 46.5-27.6 76.2s14 53.4 27.6 76.2c7.3 12.3 14.8 24.9 20.1 38.4l-1.4.5c-5.3-13.4-12.7-26-20-38.2-13.7-23-27.8-46.9-27.8-77s14.1-53.9 27.8-77c13.6-22.9 27.6-46.5 27.6-76.2s-14-53.4-27.6-76.2c-13.7-23-27.8-46.9-27.8-77h1.5c0 29.7 14 53.4 27.6 76.2 13.7 23.2 27.8 47 27.8 77.1"/></clipPath><clipPath id="q"><path d="m1.5-4h186v331h-186z"/></clipPath><clipPath id="r"><path d="m194 128.9c0 30.1-14.1 53.9-27.8 77-13.6 22.9-27.6 46.5-27.6 76.2s14 53.4 27.6 76.2c7.3 12.3 14.8 24.9 20.1 38.4l-1.4.5c-5.3-13.4-12.7-26-20-38.2-13.7-23-27.8-46.9-27.8-77s14.1-53.9 27.8-77c13.6-22.9 27.6-46.5 27.6-76.2s-14-53.4-27.6-76.2c-13.7-23-27.8-46.9-27.8-77h1.5c0 29.7 14 53.4 27.6 76.2 13.7 23.2 27.8 47 27.8 77.1"/></clipPath><clipPath id="s"><path d="m1.5-4h186v331h-186z"/></clipPath><clipPath id="t"><path d="m184 128.9c0 30.1-14.1 53.9-27.8 77-13.6 22.9-27.6 46.5-27.6 76.2s14 53.4 27.6 76.2c7.3 12.3 14.8 24.9 20.1 38.4l-1.4.5c-5.3-13.4-12.7-26-20-38.2-13.7-23-27.8-46.9-27.8-77s14.1-53.9 27.8-77c13.6-22.9 27.6-46.5 27.6-76.2s-14-53.4-27.6-76.2c-13.7-23-27.8-46.9-27.8-77h1.5c0 29.7 14 53.4 27.6 76.2 13.7 23.2 27.8 47 27.8 77.1"/></clipPath><clipPath id="u"><path d="m1.5-4h186v331h-186z"/></clipPath><clipPath id="v"><path d="m173.9 128.9c0 30.1-14.1 53.9-27.8 77-13.6 22.9-27.6 46.5-27.6 76.2s14 53.4 27.6 76.2c7.3 12.3 14.8 24.9 20.1 38.4l-1.4.5c-5.3-13.4-12.7-26-20-38.2-13.7-23-27.8-46.9-27.8-77s14.1-53.9 27.8-77c13.6-22.9 27.6-46.5 27.6-76.2s-14-53.4-27.6-76.2c-13.7-23-27.8-46.9-27.8-77h1.5c0 29.7 14 53.4 27.6 76.2 13.7 23.2 27.8 47 27.8 77.1"/></clipPath><clipPath id="w"><path d="m1.5-4h186v331h-186z"/></clipPath><clipPath id="x"><path d="m163.9 128.9c0 30.1-14.1 53.9-27.8 77-13.6 22.9-27.6 46.5-27.6 76.2s14 53.4 27.6 76.2c7.3 12.3 14.8 24.9 20.1 38.4l-1.4.5c-5.3-13.4-12.7-26-20-38.2-13.7-23-27.8-46.9-27.8-77s14.1-53.9 27.8-77c13.6-22.9 27.6-46.5 27.6-76.2s-14-53.4-27.6-76.2c-13.7-23-27.8-46.9-27.8-77h1.5c0 29.7 14 53.4 27.6 76.2 13.6 23.2 27.8 47 27.8 77.1"/></clipPath><clipPath id="y"><path d="m1.5-4h186v331h-186z"/></clipPath><clipPath id="z"><path d="m153.8 128.9c0 30.1-14.1 53.9-27.8 77-13.6 22.9-27.6 46.5-27.6 76.2s14 53.4 27.6 76.2c7.3 12.3 14.8 24.9 20.1 38.4l-1.4.5c-5.3-13.4-12.7-26-20-38.2-13.7-23-27.8-46.9-27.8-77s14.1-53.9 27.8-77c13.6-22.9 27.6-46.5 27.6-76.2s-14-53.4-27.6-76.2c-13.6-22.9-27.7-46.7-27.7-76.9h1.5c0 29.7 14 53.4 27.6 76.2 13.6 23.1 27.7 46.9 27.7 77"/></clipPath><clipPath id="A"><path d="m1.5-4h186v331h-186z"/></clipPath><clipPath id="B"><path d="m143.7 128.9c0 30.1-14.1 53.9-27.8 77-13.6 22.9-27.6 46.5-27.6 76.2s14 53.4 27.6 76.2c7.3 12.3 14.8 24.9 20.1 38.4l-1.4.5c-5.3-13.4-12.7-26-20-38.2-13.7-23-27.8-46.9-27.8-77s14.1-53.9 27.8-77c13.6-22.9 27.6-46.5 27.6-76.2s-14-53.4-27.6-76.2c-13.7-23-27.8-46.9-27.8-77h1.5c0 29.7 14 53.4 27.6 76.2 13.7 23.2 27.8 47 27.8 77.1"/></clipPath><clipPath id="C"><path d="m1.5-4h186v331h-186z"/></clipPath><clipPath id="D"><path d="m133.7 128.9c0 30.1-14.1 53.9-27.8 77-13.6 22.9-27.6 46.5-27.6 76.2s14 53.4 27.6 76.2c7.3 12.3 14.8 24.9 20.1 38.4l-1.4.5c-5.3-13.4-12.7-26-20-38.2-13.7-23-27.8-46.9-27.8-77s14.1-53.9 27.8-77c13.6-22.9 27.6-46.5 27.6-76.2s-14-53.4-27.6-76.2c-13.7-23-27.8-46.9-27.8-77h1.5c0 29.7 14 53.4 27.6 76.2 13.7 23.2 27.8 47 27.8 77.1"/></clipPath><clipPath id="E"><path d="m1.5-4h186v331h-186z"/></clipPath><clipPath id="F"><path d="m123.6 128.9c0 30.1-14.1 53.9-27.8 77-13.6 22.9-27.6 46.5-27.6 76.2s14 53.3 27.6 76.2c7.3 12.3 14.8 24.9 20.1 38.4l-1.4.5c-5.3-13.4-12.7-26-20-38.2-13.7-23-27.8-46.9-27.8-77s14.1-53.9 27.8-77c13.6-22.9 27.6-46.5 27.6-76.2s-14-53.4-27.6-76.2c-13.7-23-27.8-46.9-27.8-77h1.5c0 29.7 14 53.4 27.6 76.2 13.7 23.2 27.8 47 27.8 77.1"/></clipPath><clipPath id="G"><path d="m1.5-4h186v331h-186z"/></clipPath><clipPath id="H"><path d="m113.5 128.9c0 30.1-14.1 53.9-27.8 77-13.6 22.9-27.6 46.5-27.6 76.2s14 53.4 27.6 76.2c7.3 12.3 14.8 24.9 20.1 38.4l-1.4.5c-5.3-13.4-12.7-26-20-38.2-13.7-23-27.8-46.9-27.8-77s14.1-53.9 27.8-77c13.6-22.7 27.6-46.4 27.6-76.1s-14-53.4-27.6-76.2c-13.7-23-27.8-46.9-27.8-77h1.5c0 29.7 14 53.4 27.6 76.2 13.7 23.1 27.8 46.9 27.8 77"/></clipPath><clipPath id="I"><path d="m1.5-4h186v331h-186z"/></clipPath><clipPath id="J"><path d="m103.5 128.9c0 30.1-14.1 53.9-27.8 77-13.6 22.9-27.6 46.5-27.6 76.2s14 53.4 27.6 76.2c7.3 12.3 14.8 24.9 20.1 38.4l-1.4.5c-5.3-13.4-12.7-26-20-38.2-13.7-23-27.8-46.9-27.8-77s14.1-53.9 27.8-77c13.6-22.7 27.6-46.4 27.6-76.1s-14-53.4-27.6-76.2c-13.7-23-27.8-46.9-27.8-77h1.5c0 29.7 14 53.4 27.6 76.2 13.7 23.1 27.8 46.9 27.8 77"/></clipPath><clipPath id="K"><path d="m1.5-4h186v331h-186z"/></clipPath><clipPath id="L"><path d="m93.4 128.9c0 30.1-14.1 53.9-27.8 77-13.6 22.9-27.6 46.5-27.6 76.2s14 53.4 27.6 76.2c7.3 12.3 14.8 24.9 20.1 38.4l-1.4.5c-5.3-13.4-12.7-26-20-38.2-13.7-23-27.8-46.9-27.8-77s14.1-53.9 27.8-77c13.6-22.9 27.6-46.5 27.6-76.2s-14-53.4-27.6-76.2c-13.7-23-27.8-46.9-27.8-77h1.5c0 29.7 14 53.4 27.6 76.2 13.7 23.2 27.8 47 27.8 77.1"/></clipPath><clipPath id="M"><path d="m1.5-4h186v331h-186z"/></clipPath><clipPath id="N"><path d="m83.4 128.9c0 30.1-14.1 53.9-27.8 77-13.6 22.9-27.6 46.5-27.6 76.2s14 53.4 27.6 76.2c7.3 12.3 14.8 24.9 20.1 38.4l-1.4.5c-5.3-13.4-12.7-26-20-38.2-13.7-23-27.8-46.9-27.8-77s14.1-53.9 27.8-77c13.6-22.9 27.6-46.5 27.6-76.2s-14-53.4-27.6-76.2c-13.7-23-27.8-46.9-27.8-77h1.5c0 29.9 14 53.5 27.6 76.4 13.6 23 27.8 46.8 27.8 76.9"/></clipPath><clipPath id="O"><path d="m1.5-4h186v331h-186z"/></clipPath><clipPath id="P"><path d="m73.3 128.9c0 30.1-14.1 53.9-27.8 77-13.5 22.9-27.5 46.5-27.5 76.2s14 53.4 27.6 76.2c7.3 12.3 14.8 24.9 20.1 38.4l-1.4.5c-5.3-13.4-12.7-26-20-38.2-13.7-23-27.8-46.9-27.8-77s14.1-53.9 27.8-77c13.6-22.9 27.6-46.5 27.6-76.2s-14-53.4-27.6-76.2c-13.7-23-27.8-46.9-27.8-77h1.5c0 29.9 14 53.5 27.5 76.4 13.7 23 27.8 46.8 27.8 76.9"/></clipPath><clipPath id="Q"><path d="m1.5-4h186v331h-186z"/></clipPath><clipPath id="R"><path d="m63.2 128.9c0 30.1-14.1 53.9-27.8 77-13.6 22.9-27.6 46.5-27.6 76.2s14 53.4 27.6 76.2c7.3 12.3 14.8 24.9 20.1 38.4l-1.4.5c-5.3-13.4-12.7-26-20-38.2-13.7-23-27.8-46.9-27.8-77s14.1-53.9 27.8-77c13.6-22.9 27.6-46.5 27.6-76.2s-14-53.4-27.6-76.2c-13.7-23-27.8-46.9-27.8-77h1.5c0 29.7 14 53.4 27.6 76.2 13.7 23.2 27.8 47 27.8 77.1"/></clipPath><clipPath id="S"><path d="m1.5-4h186v331h-186z"/></clipPath><clipPath id="T"><path d="m53.2 128.9c0 30.1-14.1 53.9-27.8 77-13.6 22.9-27.6 46.5-27.6 76.2s14 53.4 27.6 76.2c7.3 12.3 14.8 24.9 20.1 38.4l-1.4.5c-5.3-13.4-12.7-26-20-38.2-13.7-23-27.8-46.9-27.8-77s14.1-53.9 27.8-77c13.6-22.9 27.6-46.5 27.6-76.2s-14-53.4-27.6-76.2c-13.7-23-27.8-46.9-27.8-77h1.5c0 29.7 14 53.4 27.6 76.2 13.7 23.2 27.8 47 27.8 77.1"/></clipPath><clipPath id="U"><path d="m1.5-4h186v331h-186z"/></clipPath><clipPath id="V"><path d="m43.1 128.9c0 30.1-14.1 53.9-27.8 77-13.6 22.9-27.6 46.5-27.6 76.2s14 53.4 27.6 76.2c7.3 12.3 14.8 24.9 20.1 38.4l-1.4.5c-5.3-13.4-12.7-26-20-38.2-13.7-23-27.8-46.9-27.8-77s14.1-53.9 27.8-77c13.6-22.9 27.6-46.5 27.6-76.2s-14-53.4-27.6-76.2c-13.7-23-27.8-46.9-27.8-77h1.5c0 29.7 14 53.4 27.6 76.2 13.7 23.2 27.8 47 27.8 77.1"/></clipPath><clipPath id="W"><path d="m1.5-4h186v331h-186z"/></clipPath><clipPath id="X"><path d="m33.1 128.9c0 30.1-14.1 53.9-27.8 77-7.3 12.3-14.8 25-20.1 38.5l-1.4-.5c5.3-13.6 12.9-26.3 20.2-38.7 13.6-22.9 27.6-46.5 27.6-76.2s-14-53.4-27.6-76.2c-7.3-12.4-14.9-25.2-20.2-38.8l1.4-.5c5.3 13.5 12.8 26.2 20.1 38.5 13.6 23 27.8 46.8 27.8 76.9"/></clipPath><clipPath id="Y"><path d="m1.5-4h186v331h-186z"/></clipPath><clipPath id="Z"><path d="m25.4 396.8-1.4.5c-5.3-13.4-12.7-26-20-38.2-7.3-12.3-14.9-25.1-20.2-38.7l1.4-.5c5.3 13.5 12.8 26.2 20.1 38.5 7.2 12.2 14.8 24.9 20.1 38.4"/></clipPath><clipPath id="aa"><path d="m1.5-4h186v331h-186z"/></clipPath><clipPath id="ab"><path d="m23 128.9c0 30.1-14.1 53.9-27.8 77-3.4 5.7-6.8 11.5-10 17.4l-1.3-.7c3.2-5.9 6.7-11.8 10.1-17.5 13.6-22.9 27.6-46.5 27.6-76.2s-14-53.4-27.6-76.2c-3.4-5.7-6.9-11.6-10.1-17.5l1.3-.7c3.2 5.9 6.7 11.7 10 17.4 13.7 23.1 27.8 46.9 27.8 77"/></clipPath><clipPath id="ac"><path d="m1.5-4h186v331h-186z"/></clipPath><clipPath id="ad"><path d="m12.9 128.9c0 30.1-14.1 53.9-27.8 77l-1.3-.8c13.6-22.9 27.6-46.5 27.6-76.2s-14-53.3-27.6-76.2l1.3-.8c13.7 23.1 27.8 46.9 27.8 77"/></clipPath><clipPath id="ae"><path d="m1.5-4h186v331h-186z"/></clipPath><clipPath id="af"><path d="m2.9 128.9c0 23.9-8.9 43.5-17.7 59.5l-1.3-.7c8.7-15.8 17.5-35.2 17.5-58.8s-8.9-43-17.5-58.8l1.3-.7c8.7 16 17.7 35.6 17.7 59.5"/></clipPath><clipPath id="ag"><path d="m1.5-4h186v331h-186z"/></clipPath><g clip-path="url(#a)" enable-background="new" opacity=".14"><g clip-path="url(#b)"><g clip-path="url(#c)"><g clip-path="url(#d)" enable-background="new"><g clip-path="url(#e)"><g clip-path="url(#f)"><path clip-path="url(#g)" d="m-3.5-9h297.9v406h-297.9z" fill="#faf9f7"/></g></g><g clip-path="url(#e)"><g clip-path="url(#h)"><path clip-path="url(#i)" d="m182.5-29.3h66.8v431.6h-66.8z" fill="#d0cfca"/></g></g><g clip-path="url(#e)"><g clip-path="url(#j)"><path clip-path="url(#k)" d="m172.5-29.3h66.8v431.6h-66.8z" fill="#d0cfca"/></g></g><g clip-path="url(#e)"><g clip-path="url(#l)"><path clip-path="url(#m)" d="m162.4-29.3h66.8v431.6h-66.8z" fill="#d0cfca"/></g></g><g clip-path="url(#e)"><g clip-path="url(#n)"><path clip-path="url(#o)" d="m152.3-29.3h66.8v431.6h-66.8z" fill="#d0cfca"/></g></g><g clip-path="url(#e)"><g clip-path="url(#p)"><path clip-path="url(#q)" d="m142.3-29.3h66.8v431.6h-66.8z" fill="#d0cfca"/></g></g><g clip-path="url(#e)"><g clip-path="url(#r)"><path clip-path="url(#s)" d="m132.2-29.3h66.8v431.6h-66.8z" fill="#d0cfca"/></g></g><g clip-path="url(#e)"><g clip-path="url(#t)"><path clip-path="url(#u)" d="m122.1-29.3h66.8v431.6h-66.8z" fill="#d0cfca"/></g></g><g clip-path="url(#e)"><g clip-path="url(#v)"><path clip-path="url(#w)" d="m112.1-29.3h66.8v431.6h-66.8z" fill="#d0cfca"/></g></g><g clip-path="url(#e)"><g clip-path="url(#x)"><path clip-path="url(#y)" d="m102-29.3h66.8v431.6h-66.8z" fill="#d0cfca"/></g></g><g clip-path="url(#e)"><g clip-path="url(#z)"><path clip-path="url(#A)" d="m92-29.3h66.8v431.6h-66.8z" fill="#d0cfca"/></g></g><g clip-path="url(#e)"><g clip-path="url(#B)"><path clip-path="url(#C)" d="m81.9-29.3h66.8v431.6h-66.8z" fill="#d0cfca"/></g></g><g clip-path="url(#e)"><g clip-path="url(#D)"><path clip-path="url(#E)" d="m71.8-29.3h66.8v431.6h-66.8z" fill="#d0cfca"/></g></g><g clip-path="url(#e)"><g clip-path="url(#F)"><path clip-path="url(#G)" d="m61.8-29.3h66.8v431.6h-66.8z" fill="#d0cfca"/></g></g><g clip-path="url(#e)"><g clip-path="url(#H)"><path clip-path="url(#I)" d="m51.7-29.3h66.8v431.6h-66.8z" fill="#d0cfca"/></g></g><g clip-path="url(#e)"><g clip-path="url(#J)"><path clip-path="url(#K)" d="m41.6-29.3h66.8v431.6h-66.8z" fill="#d0cfca"/></g></g><g clip-path="url(#e)"><g clip-path="url(#L)"><path clip-path="url(#M)" d="m31.6-29.3h66.8v431.6h-66.8z" fill="#d0cfca"/></g></g><g clip-path="url(#e)"><g clip-path="url(#N)"><path clip-path="url(#O)" d="m21.5-29.3h66.8v431.6h-66.8z" fill="#d0cfca"/></g></g><g clip-path="url(#e)"><g clip-path="url(#P)"><path clip-path="url(#Q)" d="m11.5-29.3h66.8v431.6h-66.8z" fill="#d0cfca"/></g></g><g clip-path="url(#e)"><g clip-path="url(#R)"><path clip-path="url(#S)" d="m1.4-29.3h66.8v431.6h-66.8z" fill="#d0cfca"/></g></g><g clip-path="url(#e)"><g clip-path="url(#T)"><path clip-path="url(#U)" d="m-8.7-29.3h66.8v431.6h-66.8z" fill="#d0cfca"/></g></g><g clip-path="url(#e)"><g clip-path="url(#V)"><path clip-path="url(#W)" d="m-18.7-29.3h66.8v431.6h-66.8z" fill="#d0cfca"/></g></g><g clip-path="url(#e)"><g clip-path="url(#X)"><path clip-path="url(#Y)" d="m-21.2 8.5h59.2v240.9h-59.2z" fill="#d0cfca"/></g></g><g clip-path="url(#e)"><g clip-path="url(#Z)"><path clip-path="url(#aa)" d="m-21.2 314.9h51.5v87.4h-51.5z" fill="#d0cfca"/></g></g><g clip-path="url(#e)"><g clip-path="url(#ab)"><path clip-path="url(#ac)" d="m-21.1 29.6h49.1v198.8h-49.1z" fill="#d0cfca"/></g></g><g clip-path="url(#e)"><g clip-path="url(#ad)"><path clip-path="url(#ae)" d="m-21.1 47h39.1v164h-39.1z" fill="#d0cfca"/></g></g><g clip-path="url(#e)"><g clip-path="url(#af)"><path clip-path="url(#ag)" d="m-21.1 64.4h29v129.1h-29z" fill="#d0cfca"/></g></g></g></g></g></g></svg>